<svg width="23" height="23" viewBox="0 0 23 23" fill="none" xmlns="http://www.w3.org/2000/svg">
<circle cx="11.1802" cy="11.2281" r="10.9615" fill="#485647"/>
<path d="M10.9516 5.74731C11.1333 5.74731 11.3076 5.81949 11.436 5.94797C11.5645 6.07645 11.6367 6.25071 11.6367 6.43241V10.3146H15.5189C15.7006 10.3146 15.8748 10.3868 16.0033 10.5153C16.1318 10.6437 16.204 10.818 16.204 10.9997C16.204 11.1814 16.1318 11.3557 16.0033 11.4841C15.8748 11.6126 15.7006 11.6848 15.5189 11.6848H11.6367V15.567C11.6367 15.7487 11.5645 15.9229 11.436 16.0514C11.3076 16.1799 11.1333 16.2521 10.9516 16.2521C10.7699 16.2521 10.5956 16.1799 10.4672 16.0514C10.3387 15.9229 10.2665 15.7487 10.2665 15.567V11.6848H6.38431C6.20261 11.6848 6.02836 11.6126 5.89988 11.4841C5.7714 11.3557 5.69922 11.1814 5.69922 10.9997C5.69922 10.818 5.7714 10.6437 5.89988 10.5153C6.02836 10.3868 6.20261 10.3146 6.38431 10.3146H10.2665V6.43241C10.2665 6.25071 10.3387 6.07645 10.4672 5.94797C10.5956 5.81949 10.7699 5.74731 10.9516 5.74731Z" fill="#FFF2E2"/>
</svg>
