<svg width="120" height="31" viewBox="0 0 120 31" fill="none" xmlns="http://www.w3.org/2000/svg">
<path d="M16.9778 30.2679H16.207V24.6296H16.9778V27.0124H19.8075V24.6296H20.5712V30.2679H19.8075V27.7409H16.9778V30.2679Z" fill="#1E1E1E"/>
<path d="M22.374 30.2679V24.6296H23.1378V30.2679H22.374Z" fill="#1E1E1E"/>
<path d="M26.9622 30.2679H24.9385V24.6296H27.0361C27.835 24.6296 28.465 24.883 28.9296 25.3934C29.3977 25.9072 29.63 26.5971 29.63 27.4629C29.63 28.3287 29.3907 29.0185 28.912 29.5147C28.4404 30.018 27.7893 30.2714 26.9587 30.2714L26.9622 30.2679ZM25.7022 25.3547V29.5429H26.9904C27.564 29.5429 28.0181 29.3458 28.3489 28.9551C28.6762 28.5645 28.8381 28.0577 28.8381 27.4382C28.8381 26.8188 28.6762 26.3296 28.3489 25.9424C28.0181 25.5518 27.564 25.3547 26.9904 25.3547H25.7022Z" fill="#1E1E1E"/>
<path d="M33.1292 30.2679H31.1055V24.6296H33.2031C34.002 24.6296 34.632 24.883 35.0966 25.3934C35.5647 25.9072 35.797 26.5971 35.797 27.4629C35.797 28.3287 35.5577 29.0185 35.079 29.5147C34.6074 30.018 33.9563 30.2714 33.1257 30.2714L33.1292 30.2679ZM31.8692 25.3547V29.5429H33.1574C33.731 29.5429 34.1851 29.3458 34.5159 28.9551C34.8432 28.5645 35.0051 28.0577 35.0051 27.4382C35.0051 26.8188 34.8432 26.3296 34.5159 25.9424C34.1851 25.5518 33.731 25.3547 33.1574 25.3547H31.8692Z" fill="#1E1E1E"/>
<path d="M40.7834 30.2679H37.2744V24.6296H40.7834V25.3547H38.0346V27.0405H40.5757V27.7655H38.0346V29.5429H40.7834V30.2679Z" fill="#1E1E1E"/>
<path d="M46.0778 28.649V24.6262H46.8345V30.2645H46.4368L43.0546 26.2663V30.2645H42.2979V24.6262H42.6428L46.0778 28.649Z" fill="#1E1E1E"/>
<path d="M50.6422 28.9551L52.4196 24.6296H53.2502L50.8534 30.2679H50.417L47.9814 24.6296H48.8508L50.6352 28.9551H50.6422Z" fill="#1E1E1E"/>
<path d="M58.2664 30.2679H57.4358L56.8621 28.8038H54.7187L54.1451 30.2679H53.3145L55.5951 24.6296H56.0069L58.2664 30.2679ZM56.6052 28.0858L55.7957 25.9565L54.9792 28.0858H56.6052Z" fill="#1E1E1E"/>
<path d="M63.2501 30.2679H59.4561V24.6296H60.2198V29.5288H63.2501V30.2679Z" fill="#1E1E1E"/>
<path d="M68.2325 30.2679H64.4385V24.6296H65.2022V29.5288H68.2325V30.2679Z" fill="#1E1E1E"/>
<path d="M72.9348 30.2679H69.4258V24.6296H72.9348V25.3547H70.186V27.0405H72.7271V27.7655H70.186V29.5429H72.9348V30.2679Z" fill="#1E1E1E"/>
<path d="M77.644 24.6296H78.4922L76.56 28.2407V30.2714H75.7963V28.2407L73.8887 24.6296H74.7369L76.1799 27.484L77.644 24.6296Z" fill="#1E1E1E"/>
<path d="M83.1765 30.3594C82.7577 30.3594 82.3776 30.2574 82.0362 30.0568C81.6913 29.8562 81.4309 29.5711 81.2549 29.198L81.818 28.7334C82.1242 29.3353 82.5747 29.6344 83.1695 29.6344C83.4863 29.6344 83.7362 29.5535 83.9262 29.3916C84.1127 29.2297 84.2078 29.0255 84.2078 28.7792C84.2078 28.48 84.0107 28.2161 83.62 27.9943C83.5496 27.9591 83.356 27.8676 83.0393 27.7198C82.7788 27.6037 82.5677 27.4945 82.4058 27.3995C81.8426 27.044 81.5576 26.5971 81.5576 26.0551C81.5576 25.6222 81.7124 25.2596 82.0221 24.971C82.3319 24.6754 82.7436 24.5276 83.2575 24.5276C83.9579 24.5276 84.5104 24.8056 84.9152 25.3582L84.4049 25.8474C84.0987 25.4462 83.7186 25.2456 83.2681 25.2456C83.0076 25.2456 82.7929 25.316 82.6275 25.4567C82.4586 25.5975 82.3741 25.7805 82.3741 26.0093C82.3741 26.3049 82.536 26.5478 82.8563 26.7343C82.99 26.8153 83.2082 26.9279 83.5144 27.0687C83.8347 27.22 84.0705 27.3397 84.2254 27.4277C84.7709 27.7585 85.0419 28.1949 85.0419 28.7405C85.0419 29.2226 84.8624 29.6133 84.5069 29.9089C84.1515 30.2081 83.708 30.3594 83.1801 30.3594H83.1765Z" fill="#1E1E1E"/>
<path d="M87.4501 30.2679V25.3687H85.7783V24.6296H89.8856V25.3687H88.2138V30.2679H87.4501Z" fill="#1E1E1E"/>
<path d="M94.8934 30.2679H94.0628L93.4891 28.8038H91.3457L90.772 30.2679H89.9414L92.2221 24.6296H92.6338L94.8934 30.2679ZM93.2286 28.0858L92.4192 25.9565L91.6026 28.0858H93.2286Z" fill="#1E1E1E"/>
<path d="M98.7475 24.6296H99.5957L97.6635 28.2407V30.2714H96.8998V28.2407L94.9922 24.6296H95.8404L97.2834 27.484L98.7475 24.6296Z" fill="#1E1E1E"/>
<path d="M102.045 30.3594C101.626 30.3594 101.246 30.2574 100.904 30.0568C100.559 29.8562 100.299 29.5711 100.123 29.198L100.686 28.7334C100.992 29.3353 101.443 29.6344 102.038 29.6344C102.354 29.6344 102.604 29.5535 102.794 29.3916C102.981 29.2297 103.076 29.0255 103.076 28.7792C103.076 28.48 102.879 28.2161 102.488 27.9943C102.418 27.9591 102.224 27.8676 101.907 27.7198C101.647 27.6037 101.436 27.4945 101.274 27.3995C100.711 27.044 100.426 26.5971 100.426 26.0551C100.426 25.6222 100.581 25.2596 100.89 24.971C101.2 24.6754 101.612 24.5276 102.126 24.5276C102.826 24.5276 103.379 24.8056 103.783 25.3582L103.273 25.8474C102.967 25.4462 102.587 25.2456 102.136 25.2456C101.876 25.2456 101.661 25.316 101.496 25.4567C101.327 25.5975 101.242 25.7805 101.242 26.0093C101.242 26.3049 101.404 26.5478 101.724 26.7343C101.858 26.8153 102.076 26.9279 102.383 27.0687C102.703 27.22 102.939 27.3397 103.094 27.4277C103.639 27.7585 103.91 28.1949 103.91 28.7405C103.91 29.2226 103.731 29.6133 103.375 29.9089C103.02 30.2081 102.576 30.3594 102.048 30.3594H102.045Z" fill="#1E1E1E"/>
<path d="M0 3.24509V0.538574H11.5898V3.319H11.0443C10.907 1.75985 9.43233 0.982035 6.62023 0.982035C6.62023 2.38281 6.62023 4.48748 6.60967 7.28903C6.60264 10.0941 6.59912 12.1953 6.59912 13.596C6.59912 15.7253 7.01794 16.9114 7.85207 17.1507L7.83447 17.3021H3.79757L3.77997 17.1507C3.97355 17.0944 4.146 16.9959 4.29382 16.8551C4.44164 16.7143 4.55779 16.5278 4.64226 16.299C4.72673 16.0703 4.79712 15.852 4.84991 15.6444C4.9027 15.4367 4.9379 15.1728 4.95902 14.8525C4.98013 14.5322 4.98717 14.2823 4.99069 14.1028C4.99069 13.9233 4.99069 13.677 4.98717 13.3637C4.98365 13.0505 4.97661 12.8569 4.97661 12.7901V0.982035C4.58243 0.982035 4.21639 0.996113 3.88908 1.02075C3.55824 1.04539 3.19573 1.10522 2.79451 1.20025C2.3968 1.29527 2.05189 1.41846 1.76328 1.57332C1.47468 1.72817 1.21424 1.94639 0.981948 2.23499C0.749659 2.52359 0.587761 2.85794 0.499773 3.24861H0V3.24509Z" fill="#1E1E1E"/>
<path d="M14.0114 0.538574H17.8195L17.8582 0.700473C17.633 0.770863 17.4112 0.897566 17.1965 1.08762C16.8622 1.44661 16.6968 2.78403 16.6968 5.1034L16.7144 12.695C16.7144 15.039 16.8798 16.3905 17.2141 16.7495C17.3514 16.9255 17.5907 17.0592 17.9321 17.1543L17.9145 17.3056H14.0501L14.0114 17.1719C14.1803 17.1156 14.3316 17.017 14.4584 16.8797C14.5886 16.7425 14.6906 16.57 14.7646 16.3694C14.8385 16.1688 14.9018 15.9752 14.9476 15.7852C14.9933 15.5951 15.0285 15.3734 15.0461 15.12C15.0637 14.8666 15.0778 14.666 15.0848 14.5181C15.0919 14.3703 15.0954 14.1943 15.0954 13.9867L15.0778 5.14212C15.0778 2.72068 14.937 1.37622 14.6519 1.10522C14.4584 0.911644 14.2296 0.774383 13.9727 0.700473L14.0114 0.538574Z" fill="#1E1E1E"/>
<path d="M20.0543 0.538574H22.5637L30.986 14.4653L31.0528 5.27234C31.0528 4.81832 31.0388 4.34318 31.0141 3.83989C30.9895 3.3366 30.9121 2.76292 30.7889 2.11884C30.6657 1.47477 30.4932 1.07706 30.2786 0.925722C30.1448 0.844773 29.9759 0.767344 29.7682 0.700473L29.7858 0.538574H32.9745L32.9921 0.700473C32.8232 0.756785 32.6613 0.834215 32.5099 0.925722C32.348 1.05243 32.2073 1.30583 32.0911 1.68594C31.975 2.06605 31.894 2.50951 31.8518 3.01632C31.806 3.52313 31.7779 3.95252 31.7638 4.30447C31.7497 4.65642 31.7392 4.9943 31.7392 5.31457V17.4218H30.9085L22.43 3.41403V12.4768C22.43 15.0426 22.6764 16.5102 23.1656 16.8797C23.3592 17.0135 23.5598 17.1015 23.7604 17.1543L23.7428 17.3056H20.4028L20.3852 17.1543C20.5858 17.0909 20.7793 16.9994 20.9588 16.8797C21.4129 16.5524 21.6627 15.1341 21.712 12.6282V3.92436C21.712 3.60408 21.705 3.32956 21.6874 3.10431C21.6733 2.87906 21.6311 2.62213 21.5712 2.33705C21.5079 2.05197 21.4199 1.81264 21.3038 1.61907C21.1876 1.42901 21.0222 1.246 20.8075 1.07706C20.5928 0.908125 20.3359 0.781422 20.0332 0.700473L20.0508 0.538574H20.0543Z" fill="#1E1E1E"/>
<path d="M34.6602 0.538533H38.2044L38.222 0.700431C38.0953 0.742666 37.9967 0.827135 37.9263 0.946798C37.8524 1.06646 37.8172 1.19668 37.8172 1.33395C37.8172 1.524 37.8946 1.84428 38.0495 2.29478C38.2044 2.74528 38.3874 3.22041 38.595 3.72019C38.8027 4.21996 39.0702 4.81124 39.3904 5.50107C39.7107 6.19441 39.9817 6.7681 40.1999 7.22212C40.4181 7.67966 40.6751 8.20406 40.9637 8.79535C41.2523 9.39015 41.4177 9.73506 41.4634 9.82657C41.4634 9.81953 41.7767 9.05227 42.4067 7.5248C43.0367 5.99732 43.5188 4.73381 43.8602 3.73426C44.1981 2.73472 44.3706 2.00618 44.3706 1.54512C44.3706 1.35506 44.3248 1.18261 44.2333 1.02775C44.1418 0.872888 44.0116 0.760263 43.8426 0.696912L43.8602 0.535014H46.8976L46.9152 0.696912C46.5386 0.816576 46.25 0.93272 46.0459 1.04535C45.8875 1.12629 45.6587 1.45713 45.356 2.03433C45.0534 2.61154 44.726 3.34008 44.3706 4.21644C44.0151 5.0928 43.6843 5.92341 43.3816 6.70475C43.0754 7.48608 42.7692 8.29205 42.463 9.11562C42.1533 9.93919 41.9738 10.4249 41.9175 10.5762C41.9351 10.7381 41.9386 11.2344 41.921 12.0579C41.9034 12.8815 41.8963 13.3743 41.8963 13.5397C41.8963 13.786 41.8963 13.9937 41.9069 14.1661C41.9175 14.3386 41.928 14.5744 41.9491 14.8736C41.9703 15.1727 42.0125 15.4297 42.0758 15.6479C42.1392 15.8661 42.2166 16.0878 42.3117 16.3131C42.4067 16.5383 42.5334 16.7248 42.6988 16.8691C42.8607 17.0134 43.0508 17.1085 43.2654 17.1507L43.2478 17.302H39.0315L39.0139 17.1507C39.2074 17.0874 39.3799 16.9818 39.5277 16.8304C39.6755 16.6791 39.7917 16.489 39.8761 16.2567C39.9606 16.0245 40.031 15.7992 40.0838 15.581C40.1366 15.3628 40.1753 15.1094 40.1964 14.8137C40.2175 14.5181 40.2316 14.2858 40.2386 14.1204C40.2457 13.955 40.2492 13.7473 40.2492 13.5045V10.8543C40.1788 10.7029 40.0169 10.3334 39.7635 9.74562C39.5101 9.15786 39.2708 8.61233 39.0455 8.10904C38.8238 7.60575 38.5458 6.99687 38.2149 6.28592C37.8841 5.57146 37.5708 4.9309 37.2717 4.36074C36.9725 3.79058 36.6663 3.23449 36.3496 2.69248C36.0328 2.15048 35.7301 1.70702 35.438 1.3621C35.1459 1.01719 34.896 0.806017 34.6743 0.71451L34.6919 0.573728H35.0297L34.9734 0.827134L34.625 0.693392L34.6532 0.531494L34.6602 0.538533Z" fill="#1E1E1E"/>
<path d="M49.6819 13.9654L49.6538 5.13845C49.6538 4.73723 49.6467 4.30081 49.6291 3.83623C49.615 3.37165 49.5693 2.82964 49.4954 2.21021C49.4215 1.59077 49.3264 1.22122 49.2068 1.10156C49.0308 0.907982 48.8126 0.770721 48.5557 0.69681L48.5733 0.534912H52.4131L52.4307 0.69681C52.1737 0.770721 51.9555 0.907982 51.7795 1.10156C51.4417 1.43943 51.2692 2.72054 51.2692 4.94136V12.6914C51.2692 15.0424 51.4382 16.3939 51.7795 16.7459C51.9414 16.9289 52.1878 17.0626 52.5151 17.1506L52.4975 17.3019H48.612L48.5944 17.1506C49.3159 16.9113 49.6784 15.8484 49.6784 13.9619L49.6819 13.9654ZM50.3119 11.1463L50.5864 10.5796C51.329 10.0904 52.1949 9.84406 53.1874 9.84406C53.6097 9.84406 54.2432 9.9039 55.0914 10.02C55.9396 10.1362 56.5802 10.196 57.0131 10.196C57.9176 10.196 58.8116 9.8863 59.6915 9.2739L59.7583 9.93557C59.0157 10.4635 58.1464 10.7275 57.1468 10.7275C56.7069 10.7275 56.0558 10.6606 55.1935 10.5233C54.3312 10.3861 53.6801 10.3192 53.2402 10.3192C52.2265 10.3192 51.329 10.6536 50.5442 11.3187L50.3084 11.1498L50.3119 11.1463ZM59.065 12.9553V5.00823C59.065 4.90265 59.065 4.73019 59.0615 4.49086C59.0579 4.25153 59.0544 4.05444 59.0474 3.9031C59.0403 3.75176 59.0333 3.56171 59.0298 3.33646C59.0263 3.11121 59.0122 2.92115 58.9911 2.76277C58.9735 2.60088 58.9523 2.43546 58.9347 2.263C58.9172 2.09054 58.8925 1.9392 58.8608 1.80546C58.8292 1.67172 58.794 1.56261 58.7588 1.47463C58.5969 1.0734 58.3435 0.812955 58.0056 0.70033L58.0232 0.538432H61.6518L61.6694 0.70033C60.9479 0.957256 60.6065 2.19261 60.6523 4.40639V12.364C60.6523 14.4124 60.7614 15.7393 60.9831 16.3446C61.1415 16.767 61.3879 17.0415 61.7293 17.1752L61.7117 17.309H57.9669L57.9493 17.1752C58.1077 17.1189 58.2484 17.0274 58.3751 16.9007C58.5018 16.774 58.6039 16.6368 58.6813 16.4889C58.7588 16.3411 58.8256 16.1546 58.8784 15.9293C58.9312 15.7041 58.9735 15.5035 59.0016 15.3275C59.0298 15.1515 59.0509 14.9298 59.0615 14.6623C59.0755 14.3948 59.0791 14.1872 59.0791 14.0393C59.0791 13.8915 59.0791 13.6909 59.0755 13.441C59.0755 13.1911 59.072 13.0292 59.072 12.9588L59.065 12.9553Z" fill="#1E1E1E"/>
<path d="M69.0282 0.622956C70.158 0.207652 71.2913 0 72.4211 0C73.5508 0 74.7017 0.207652 75.8174 0.622956C77.5666 1.26351 78.9216 2.29473 79.8825 3.70958C80.8433 5.12795 81.3255 6.76805 81.3255 8.62636C81.3255 10.3685 80.9102 11.9418 80.076 13.3496C79.2419 14.7574 78.0488 15.8414 76.4967 16.6016C75.2191 17.2246 73.8993 17.5343 72.5372 17.5343C71.1751 17.5343 69.8518 17.2246 68.5566 16.6016C66.9834 15.8484 65.7762 14.7644 64.9245 13.3496C64.0763 11.9347 63.6504 10.3474 63.6504 8.58765C63.6504 6.7399 64.115 5.11035 65.0406 3.70254C65.9662 2.29473 67.2966 1.26703 69.0247 0.619437L69.0282 0.622956ZM72.9807 17.1331C73.9802 17.1331 74.9023 16.9289 75.7435 16.5242C76.5847 16.1194 77.2815 15.5739 77.8306 14.8911C78.3796 14.2083 78.809 13.427 79.1117 12.5471C79.4179 11.6672 79.5692 10.7451 79.5692 9.78429C79.5692 9.08742 79.4918 8.37296 79.3369 7.64441C79.1821 6.91587 78.9639 6.20141 78.6753 5.50454C78.3866 4.80768 78.0241 4.15304 77.5807 3.53713C77.1372 2.92473 76.6445 2.38624 76.106 1.92518C75.5675 1.46412 74.941 1.09809 74.2336 0.827089C73.5262 0.556085 72.7871 0.422343 72.0128 0.422343C71.1892 0.422343 70.422 0.556085 69.7075 0.81653C68.993 1.08049 68.3806 1.44653 67.8633 1.9111C67.3459 2.37568 66.9059 2.92121 66.5329 3.54065C66.1633 4.1636 65.8853 4.83935 65.7023 5.56789C65.5193 6.29644 65.4277 7.05313 65.4277 7.83095C65.4277 8.5243 65.5052 9.2282 65.6636 9.95323C65.8219 10.6747 66.0437 11.3822 66.3323 12.0755C66.6209 12.7688 66.9904 13.4164 67.4339 14.0288C67.8773 14.6412 68.3736 15.1727 68.9156 15.6373C69.4576 16.0983 70.077 16.4644 70.7774 16.7318C71.4778 16.9993 72.2099 17.1331 72.9701 17.1331H72.9807Z" fill="#1E1E1E"/>
<path d="M82.8991 0.538432H86.7178L86.7354 0.70033C86.4151 0.834072 86.1582 1.09452 85.9611 1.49222C85.778 1.83714 85.6865 2.97043 85.6865 4.88857V11.0477C85.6865 11.456 85.7006 11.8502 85.7323 12.2303C85.764 12.6104 85.8203 13.0046 85.9083 13.4129C85.9963 13.8211 86.1018 14.1977 86.2321 14.5391C86.3623 14.8805 86.5383 15.2113 86.7494 15.5246C86.9641 15.8378 87.207 16.1053 87.4815 16.32C87.756 16.5382 88.0833 16.7107 88.4705 16.8374C88.8576 16.9641 89.2835 17.0309 89.7481 17.0309C90.4097 17.0309 90.994 16.9007 91.5114 16.6403C92.0287 16.3798 92.4405 16.042 92.7573 15.6302C93.0705 15.2184 93.331 14.7292 93.5351 14.159C93.7392 13.5888 93.88 13.0292 93.9539 12.4767C94.0278 11.9241 94.0665 11.3469 94.0665 10.7415V4.73371C94.0665 2.29468 93.6372 0.950216 92.7749 0.69681L92.7925 0.534912H96.1114L96.129 0.69681C95.8826 0.760162 95.6996 0.855189 95.5729 0.978373C95.3582 1.17899 95.1893 1.59429 95.0626 2.22429C94.9359 2.85428 94.8619 3.41389 94.8373 3.9031C94.8127 4.39231 94.7986 4.87449 94.7986 5.34611V10.6852C94.7986 11.4067 94.7458 12.0895 94.6367 12.7266C94.5311 13.3636 94.3481 13.983 94.0947 14.5778C93.8413 15.1761 93.5175 15.69 93.1268 16.1194C92.7362 16.5488 92.2364 16.8937 91.624 17.1506C91.0116 17.4075 90.3182 17.5378 89.5439 17.5378C85.9047 17.5378 84.0852 15.3345 84.0852 10.9281V5.13845C84.0852 2.80149 83.9233 1.46055 83.5959 1.12267C83.427 0.929099 83.1806 0.784799 82.8604 0.69681L82.8885 0.534912L82.8991 0.538432Z" fill="#1E1E1E"/>
<path d="M98.3817 9.82646C98.2761 10.1714 98.2198 10.6113 98.2198 11.1463C98.2198 11.6179 98.2726 12.1177 98.3817 12.6421C98.4908 13.1665 98.6562 13.6944 98.8815 14.2223C99.1067 14.7503 99.3777 15.2254 99.691 15.6513C100.004 16.0771 100.391 16.4221 100.845 16.6895C101.299 16.957 101.789 17.0908 102.313 17.0908C103.024 17.0908 103.682 16.8831 104.287 16.4643C104.893 16.0455 105.368 15.5105 105.706 14.8559C106.044 14.2012 106.216 13.5255 106.216 12.8286C106.216 12.2057 106.125 11.6601 105.938 11.1885C105.752 10.7169 105.505 10.3368 105.192 10.0447C104.882 9.75255 104.523 9.49562 104.122 9.27741C103.721 9.0592 103.295 8.86563 102.848 8.70373C102.401 8.54183 101.954 8.37993 101.511 8.21803C101.064 8.05613 100.641 7.86608 100.236 7.64435C99.8353 7.42262 99.4763 7.16217 99.1666 6.86653C98.8568 6.57089 98.6069 6.18726 98.4204 5.71213C98.2339 5.23699 98.1424 4.68795 98.1424 4.06851C98.1424 3.44907 98.262 2.90003 98.5014 2.41433C98.7407 1.92864 99.0645 1.53445 99.4763 1.23529C99.8881 0.936128 100.356 0.710879 100.877 0.556019C101.398 0.40116 101.954 0.32373 102.545 0.32373C104.016 0.32373 105.368 0.661605 106.6 1.34087C106.6 2.36506 106.498 3.66728 106.29 5.24403H105.734C105.759 4.74778 105.748 4.29024 105.706 3.8679C105.664 3.44555 105.565 3.04081 105.417 2.64662C105.269 2.25243 105.072 1.9216 104.822 1.64707C104.573 1.37255 104.249 1.15434 103.84 0.992441C103.436 0.830543 102.964 0.746074 102.433 0.746074C101.929 0.746074 101.468 0.900933 101.046 1.20713C100.624 1.51685 100.3 1.90048 100.071 2.36506C99.8423 2.82963 99.7262 3.31181 99.7262 3.80806C99.7262 4.23041 99.8141 4.59996 99.9936 4.92023C100.173 5.24051 100.412 5.50448 100.715 5.71213C101.018 5.91978 101.363 6.10632 101.757 6.27877C102.151 6.45123 102.563 6.61665 102.992 6.77855C103.422 6.94044 103.855 7.11642 104.287 7.29592C104.72 7.47893 105.136 7.7077 105.526 7.98926C105.917 8.27083 106.265 8.58758 106.568 8.94657C106.871 9.30557 107.11 9.76311 107.29 10.3192C107.469 10.8753 107.557 11.5053 107.557 12.2092C107.557 12.9131 107.423 13.5924 107.156 14.247C106.888 14.9016 106.526 15.4683 106.072 15.954C105.614 16.4397 105.065 16.8233 104.421 17.1154C103.777 17.4075 103.101 17.5483 102.39 17.5483C101.352 17.5483 100.363 17.2808 99.4235 16.7458C98.4838 16.2109 97.8291 15.4859 97.4561 14.5673C97.4561 12.5858 97.5335 11.0301 97.6919 9.90037L98.3711 9.8335L98.3817 9.82646Z" fill="#1E1E1E"/>
<path d="M109.479 17.133C109.697 17.1647 109.943 17.0309 110.214 16.7283C110.548 16.408 110.714 14.8066 110.714 11.9206V5.04343C110.714 2.73814 110.548 1.42183 110.214 1.10156C110.045 0.911502 109.823 0.77776 109.552 0.69681L109.57 0.534912H118.745V3.22383H118.228C118.059 2.4249 117.672 1.86529 117.067 1.54502C116.345 1.16843 114.74 0.978373 112.259 0.978373V14.0393C112.259 14.247 112.259 14.4054 112.262 14.511C112.266 14.6165 112.277 14.7996 112.291 15.053C112.305 15.3064 112.333 15.5175 112.375 15.6794C112.417 15.8413 112.47 16.0173 112.537 16.2074C112.604 16.3974 112.695 16.5452 112.812 16.6544C112.928 16.7635 113.065 16.8303 113.223 16.8585C113.297 16.8726 113.537 16.8761 113.941 16.8761C114.269 16.8761 114.547 16.8761 114.779 16.8655C115.011 16.8585 115.303 16.8374 115.655 16.8057C116.007 16.7705 116.31 16.7247 116.563 16.6649C116.817 16.6051 117.091 16.5171 117.383 16.4009C117.675 16.2848 117.918 16.1475 118.115 15.9856C118.309 15.8237 118.481 15.6196 118.633 15.3697C118.784 15.1198 118.883 14.8348 118.935 14.5215H119.481V17.3019H109.496L109.479 17.133ZM111.601 9.48507V9.08033L113.128 9.06273C113.29 9.06273 113.494 9.06273 113.73 9.07329C113.969 9.08033 114.156 9.08385 114.286 9.08737C114.416 9.09089 114.578 9.08737 114.768 9.07681C114.958 9.06625 115.106 9.05217 115.212 9.03105C115.317 9.00994 115.441 8.97474 115.578 8.92899C115.715 8.88323 115.824 8.81988 115.902 8.74597C115.979 8.67206 116.064 8.57351 116.152 8.45737C116.24 8.34123 116.31 8.20396 116.359 8.04207C116.408 7.88017 116.454 7.69715 116.496 7.48598C116.539 7.27481 116.567 7.03548 116.584 6.76448H117.084V11.7446H116.556C116.542 11.2589 116.482 10.8682 116.373 10.5656C116.264 10.2629 116.088 10.0341 115.849 9.87574C115.61 9.71736 115.342 9.61529 115.046 9.56602C114.751 9.51675 114.36 9.49211 113.878 9.49211H111.597L111.601 9.48507Z" fill="#1E1E1E"/>
</svg>
