<svg width="124" height="80" viewBox="0 0 124 80" fill="none" xmlns="http://www.w3.org/2000/svg">
<path d="M46.4779 79.1281C45.8007 79.1281 45.1855 78.9564 44.6324 78.6178C44.0792 78.2792 43.6643 77.7928 43.3877 77.1681L44.0124 76.7484C44.2509 77.2682 44.5799 77.6688 44.9996 77.9597C45.4192 78.2506 45.9056 78.3937 46.4588 78.3937C47.0931 78.3937 47.6129 78.222 48.0135 77.8738C48.414 77.5257 48.6096 77.0918 48.6096 76.5767C48.6096 76.2191 48.5094 75.9186 48.3044 75.6659C48.0993 75.4131 47.7893 75.1842 47.3744 74.9744C47.1026 74.8409 46.7831 74.6883 46.4064 74.5309C45.9295 74.3211 45.6195 74.1732 45.4764 74.0969C44.4082 73.5628 43.8741 72.8141 43.8741 71.8556C43.8741 71.1498 44.1221 70.5728 44.6133 70.1102C45.1045 69.6429 45.7578 69.4092 46.5733 69.4092C47.6939 69.4092 48.5809 69.8765 49.2343 70.8112L48.6477 71.2833C48.1136 70.5203 47.4269 70.1388 46.5876 70.1388C46.0296 70.1388 45.5718 70.2962 45.2189 70.6014C44.866 70.9066 44.6896 71.3167 44.6896 71.8174C44.6896 72.4612 45.0663 72.9858 45.8198 73.3816C46.0296 73.4913 46.373 73.6534 46.8499 73.8633C47.3744 74.0922 47.7321 74.2591 47.9181 74.3592C48.9291 74.9124 49.4346 75.642 49.4346 76.5481C49.4346 77.3111 49.1484 77.9358 48.5809 78.4175C48.0135 78.8944 47.3124 79.1281 46.4827 79.1281H46.4779Z" fill="#1E1E1E"/>
<path d="M53.5693 78.9754V70.3248H50.7175V69.5713H57.1936V70.3248H54.3418V78.9754H53.5645H53.5693Z" fill="#1E1E1E"/>
<path d="M65.248 78.9754H64.3944L63.2737 76.1237H59.3156L58.1949 78.9754H57.3413L61.0944 69.5713H61.514L65.2433 78.9754H65.248ZM63.021 75.3988L61.3042 70.959L59.5731 75.3988H63.021Z" fill="#1E1E1E"/>
<path d="M71.8386 69.5713H72.6922L69.5114 75.2462V78.9754H68.7341V75.2462L65.5771 69.5713H66.4308L69.1299 74.5213L71.8386 69.5713Z" fill="#1E1E1E"/>
<path d="M76.9269 79.1281C76.2497 79.1281 75.6345 78.9564 75.0813 78.6178C74.5282 78.2792 74.1133 77.7928 73.8367 77.1681L74.4614 76.7484C74.6998 77.2682 75.0289 77.6688 75.4485 77.9597C75.8682 78.2506 76.3546 78.3937 76.9078 78.3937C77.5421 78.3937 78.0619 78.222 78.4624 77.8738C78.863 77.5257 79.0585 77.0918 79.0585 76.5767C79.0585 76.2191 78.9584 75.9186 78.7533 75.6659C78.5483 75.4131 78.2383 75.1842 77.8234 74.9744C77.5516 74.8409 77.2321 74.6883 76.8553 74.5309C76.3785 74.3211 76.0685 74.1732 75.9254 74.0969C74.8572 73.5628 74.3231 72.8141 74.3231 71.8556C74.3231 71.1498 74.5711 70.5728 75.0623 70.1102C75.5535 69.6429 76.2068 69.4092 77.0223 69.4092C78.1429 69.4092 79.0299 69.8765 79.6833 70.8112L79.0967 71.2833C78.5626 70.5203 77.8759 70.1388 77.0366 70.1388C76.4786 70.1388 76.0208 70.2962 75.6679 70.6014C75.315 70.9066 75.1386 71.3167 75.1386 71.8174C75.1386 72.4612 75.5153 72.9858 76.2688 73.3816C76.4786 73.4913 76.822 73.6534 77.2988 73.8633C77.8234 74.0922 78.1811 74.2591 78.3671 74.3592C79.378 74.9124 79.8835 75.642 79.8835 76.5481C79.8835 77.3111 79.5974 77.9358 79.0299 78.4175C78.4624 78.8944 77.7614 79.1281 76.9316 79.1281H76.9269Z" fill="#1E1E1E"/>
<path d="M1.85125 22.2263L1.80356 7.80535C1.80356 7.14726 1.78925 6.44147 1.76541 5.67846C1.74157 4.92021 1.67003 4.03321 1.55081 3.02222C1.43159 2.01123 1.27422 1.40559 1.0787 1.21006C0.797339 0.895322 0.439676 0.675956 0.0200195 0.551967L0.0534013 0.289681H6.32441L6.35302 0.551967C5.93337 0.675956 5.5757 0.895322 5.28957 1.21483C4.73639 1.76802 4.4598 3.85676 4.4598 7.48584V20.1471C4.4598 23.986 4.73639 26.194 5.28957 26.771C5.55663 27.0714 5.95721 27.2908 6.49132 27.4339L6.46271 27.6818H0.110627L0.0820143 27.4339C1.26468 27.0428 1.85125 25.307 1.85125 22.2263ZM2.88609 17.6196L3.33436 16.6945C4.54564 15.8933 5.96198 15.4927 7.58815 15.4927C8.27486 15.4927 9.31447 15.5881 10.6974 15.7788C12.0852 15.9696 13.1295 16.065 13.8401 16.065C15.3184 16.065 16.7777 15.5642 18.2131 14.5532L18.3228 15.631C17.1115 16.4942 15.6904 16.9234 14.0547 16.9234C13.3346 16.9234 12.2711 16.8137 10.8643 16.5943C9.45753 16.3749 8.39408 16.2653 7.67399 16.2653C6.01921 16.2653 4.55041 16.8089 3.26759 17.8962L2.88132 17.6196H2.88609ZM17.183 20.5763V7.59076C17.183 7.41431 17.183 7.13295 17.1735 6.74191C17.1687 6.35086 17.1592 6.03135 17.1496 5.7786C17.1401 5.52585 17.1306 5.22065 17.121 4.85345C17.1115 4.49102 17.0877 4.17628 17.059 3.91399C17.0304 3.65171 16.997 3.37988 16.9684 3.09852C16.9351 2.81716 16.8969 2.56918 16.8444 2.34982C16.792 2.13522 16.7348 1.954 16.6728 1.81094C16.4057 1.15284 15.9956 0.733182 15.4424 0.547198L15.471 0.284912H21.4034L21.4368 0.547198C20.2542 0.966855 19.701 2.98884 19.7725 6.60361V19.6082C19.7725 22.9559 19.9537 25.121 20.3114 26.1081C20.5689 26.7948 20.9742 27.2479 21.5274 27.4625L21.4988 27.6771H15.3852L15.3518 27.4625C15.6093 27.3719 15.8382 27.2193 16.0433 27.0142C16.2483 26.8091 16.4153 26.585 16.544 26.3418C16.6728 26.0986 16.7825 25.7934 16.8683 25.4262C16.9541 25.059 17.0209 24.7299 17.0686 24.439C17.1163 24.1481 17.1497 23.7905 17.1687 23.3517C17.1878 22.913 17.2021 22.5744 17.2021 22.336C17.2021 22.0975 17.2021 21.7685 17.1926 21.3584C17.1878 20.9482 17.183 20.686 17.183 20.5715V20.5763Z" fill="#1E1E1E"/>
<path d="M25.3473 0.289795H31.5706L31.6326 0.55208C31.2606 0.666532 30.9029 0.876361 30.5548 1.18157C30.0112 1.76813 29.7394 3.95225 29.7394 7.74347L29.768 20.1472C29.768 23.9766 30.0398 26.1845 30.5834 26.7711C30.8076 27.0572 31.1986 27.2814 31.7566 27.434L31.728 27.6819H25.414L25.352 27.4673C25.6286 27.3767 25.8718 27.2146 26.0817 26.9905C26.2915 26.7663 26.4584 26.485 26.5824 26.1607C26.7064 25.8364 26.8065 25.5121 26.8828 25.2069C26.9591 24.9017 27.0116 24.5345 27.045 24.1196C27.0736 23.7047 27.0974 23.3757 27.107 23.1325C27.1165 22.8893 27.1213 22.5984 27.1213 22.2598L27.0927 7.81024C27.0927 3.85688 26.8638 1.65845 26.4012 1.21495C26.0817 0.895436 25.7145 0.67607 25.29 0.55208L25.352 0.289795L25.3473 0.289795Z" fill="#1E1E1E"/>
<path d="M35.543 27.4054H35.729H35.7003C36.1438 27.2718 36.492 27.062 36.7495 26.7759C37.2931 26.1511 37.565 23.5521 37.565 18.9788V7.39058C37.565 3.8998 37.2931 1.83966 36.7495 1.21495C36.4729 0.904974 36.1105 0.685608 35.6717 0.55208L35.7003 0.289795H40.9699C44.6991 0.289795 47.508 0.690376 49.3964 1.49154C50.9701 2.15918 52.3054 3.1654 53.4118 4.51021C54.5181 5.85502 55.3241 7.32859 55.8296 8.93091C56.3398 10.5332 56.5926 12.2071 56.5926 13.9525C56.5926 16.0079 56.2826 17.882 55.6674 19.5749C55.0522 21.2679 54.17 22.7176 53.0255 23.9098C51.881 25.1068 50.4694 26.0319 48.7908 26.69C47.1121 27.3481 45.238 27.6772 43.1731 27.6772H35.5764L35.543 27.4006V27.4054ZM40.1163 21.2106C40.1163 22.9274 40.1783 24.1387 40.3023 24.8445C40.4787 25.8936 40.7887 26.5947 41.2417 26.9571H41.1511C41.3276 26.9571 41.5946 26.9619 41.9618 26.9714C42.3242 26.9809 42.6056 26.9857 42.8011 26.9857C44.3415 26.9857 45.7196 26.7616 46.9309 26.3085C48.1422 25.8555 49.1484 25.2403 49.9448 24.4582C50.7412 23.6761 51.3993 22.7271 51.9239 21.6065C52.4485 20.4858 52.8204 19.3031 53.0398 18.0537C53.2592 16.8042 53.3688 15.4451 53.3688 13.9811C53.3688 12.4217 53.2592 11.0054 53.0446 9.74638C52.83 8.48741 52.4628 7.2952 51.943 6.18884C51.4232 5.0777 50.7555 4.15255 49.9401 3.40861C49.1246 2.66467 48.0898 2.07811 46.8356 1.65368C45.5814 1.22925 44.1412 1.01466 42.5055 1.01466C41.5708 1.01466 40.555 1.08142 39.4534 1.21495V0.862054H40.1163V21.2106Z" fill="#1E1E1E"/>
<path d="M59.573 27.4054H59.759H59.7304C60.1739 27.2718 60.522 27.062 60.7795 26.7759C61.3232 26.1511 61.595 23.5521 61.595 18.9788V7.39058C61.595 3.8998 61.3232 1.83966 60.7795 1.21495C60.5029 0.904974 60.1405 0.685608 59.7018 0.55208L59.7304 0.289795H64.9999C68.7291 0.289795 71.538 0.690376 73.4264 1.49154C75.0002 2.15918 76.3354 3.1654 77.4418 4.51021C78.5482 5.85502 79.3541 7.32859 79.8596 8.93091C80.3699 10.5332 80.6226 12.2071 80.6226 13.9525C80.6226 16.0079 80.3126 17.882 79.6975 19.5749C79.0823 21.2679 78.2 22.7176 77.0555 23.9098C75.911 25.1068 74.4994 26.0319 72.8208 26.69C71.1422 27.3481 69.268 27.6772 67.2031 27.6772H59.6064L59.573 27.4006V27.4054ZM64.1463 21.2106C64.1463 22.9274 64.2083 24.1387 64.3323 24.8445C64.5087 25.8936 64.8187 26.5947 65.2717 26.9571H65.1811C65.3576 26.9571 65.6246 26.9619 65.9918 26.9714C66.3543 26.9809 66.6356 26.9857 66.8312 26.9857C68.3715 26.9857 69.7497 26.7616 70.961 26.3085C72.1722 25.8555 73.1785 25.2403 73.9749 24.4582C74.7713 23.6761 75.4293 22.7271 75.9539 21.6065C76.4785 20.4858 76.8505 19.3031 77.0698 18.0537C77.2892 16.8042 77.3989 15.4451 77.3989 13.9811C77.3989 12.4217 77.2892 11.0054 77.0746 9.74638C76.86 8.48741 76.4928 7.2952 75.973 6.18884C75.4532 5.0777 74.7856 4.15255 73.9701 3.40861C73.1546 2.66467 72.1198 2.07811 70.8656 1.65368C69.6114 1.22925 68.1712 1.01466 66.5355 1.01466C65.6008 1.01466 64.585 1.08142 63.4834 1.21495V0.862054H64.1463V21.2106Z" fill="#1E1E1E"/>
<path d="M83.6938 27.4054C84.0515 27.4578 84.4521 27.2337 84.8956 26.7425C85.4392 26.2179 85.7111 23.5998 85.7111 18.8882V7.65287C85.7111 3.88549 85.4392 1.73475 84.8956 1.21495C84.619 0.904974 84.2566 0.685608 83.8178 0.55208L83.8464 0.289795H98.8349V4.68189H97.986C97.7094 3.38 97.0752 2.46438 96.0928 1.93981C94.9101 1.32463 92.292 1.01466 88.2385 1.01466V22.3504C88.2385 22.689 88.2385 22.9465 88.2481 23.1229C88.2528 23.2994 88.2672 23.5951 88.2958 24.0099C88.3196 24.4248 88.3673 24.7682 88.4341 25.0352C88.5008 25.3023 88.5867 25.5884 88.6963 25.8984C88.806 26.2084 88.9539 26.4516 89.1446 26.628C89.3354 26.8092 89.5595 26.9189 89.817 26.9619C89.941 26.9809 90.3321 26.9905 90.9901 26.9905C91.5243 26.9905 91.9821 26.9857 92.3636 26.9762C92.7451 26.9666 93.222 26.9332 93.7942 26.876C94.3713 26.8188 94.8672 26.7425 95.2821 26.6471C95.697 26.5517 96.1453 26.4039 96.6221 26.2179C97.099 26.0272 97.4996 25.803 97.8143 25.5407C98.1339 25.2785 98.4152 24.9446 98.6632 24.5297C98.9112 24.1196 99.0733 23.6571 99.1544 23.142H100.046V27.6867H83.732L83.7034 27.4101L83.6938 27.4054ZM87.1608 14.911V14.2482L89.6549 14.2195C89.9219 14.2195 90.251 14.2243 90.642 14.2338C91.0331 14.2434 91.3335 14.2529 91.5529 14.2577C91.7675 14.2625 92.0298 14.2577 92.3397 14.2434C92.6497 14.2291 92.8881 14.2005 93.0646 14.1671C93.241 14.1337 93.4413 14.0765 93.6655 13.9954C93.8896 13.9191 94.066 13.819 94.1948 13.695C94.3236 13.571 94.4571 13.4136 94.6049 13.2229C94.748 13.0321 94.8624 12.808 94.9435 12.5457C95.0246 12.2834 95.1009 11.983 95.1676 11.6348C95.2344 11.2915 95.2821 10.8957 95.3155 10.4569H96.1309V18.5926H95.2678C95.2487 17.8009 95.1486 17.1619 94.9674 16.666C94.7861 16.1748 94.5048 15.798 94.1137 15.5405C93.7227 15.283 93.2887 15.1161 92.8023 15.0302C92.3207 14.9492 91.6816 14.9063 90.89 14.9063H87.1608V14.911Z" fill="#1E1E1E"/>
<path d="M102.86 0.289811H106.956L120.714 23.0419L120.824 8.02008C120.824 7.28091 120.805 6.49883 120.762 5.67859C120.719 4.85835 120.6 3.91889 120.39 2.86498C120.185 1.81107 119.908 1.16251 119.56 0.914528C119.346 0.781 119.069 0.657011 118.731 0.542559L118.759 0.280273H123.967L124 0.542559C123.724 0.633167 123.461 0.757156 123.213 0.914528C122.946 1.11959 122.717 1.53448 122.527 2.15442C122.336 2.77437 122.207 3.49923 122.136 4.32424C122.064 5.14925 122.016 5.85026 121.988 6.42729C121.964 7.00432 121.95 7.55274 121.95 8.07731V27.8584H120.595L106.747 4.98234V19.7848C106.747 23.9766 107.147 26.3753 107.948 26.9809C108.268 27.1955 108.592 27.3434 108.916 27.4292L108.888 27.6772H103.432L103.404 27.4292C103.733 27.3291 104.047 27.1765 104.343 26.9809C105.082 26.4468 105.492 24.1292 105.573 20.0328V5.82165C105.573 5.29708 105.559 4.85358 105.535 4.48161C105.511 4.10964 105.445 3.69475 105.344 3.22741C105.244 2.76006 105.096 2.36902 104.906 2.05428C104.715 1.73953 104.448 1.44387 104.095 1.16728C103.747 0.890683 103.327 0.685624 102.831 0.552097L102.86 0.289811Z" fill="#1E1E1E"/>
<path d="M12.0185 62.1318L6.34838 43.1996C6.33884 43.1662 6.25777 42.9039 6.10994 42.4079C5.9621 41.912 5.84765 41.5448 5.77135 41.3063C5.69505 41.0679 5.57583 40.6912 5.41845 40.1761C5.26108 39.6563 5.12279 39.2367 5.00357 38.9124C4.88435 38.5881 4.75082 38.2304 4.59345 37.8346C4.44085 37.4388 4.29301 37.105 4.16425 36.8332C4.03073 36.5614 3.90674 36.342 3.79228 36.1799C3.31063 35.5551 2.7956 35.1546 2.25195 34.9781L2.28057 34.7158H8.33698L8.36559 34.9781C8.09854 35.0687 7.88394 35.2356 7.71703 35.4693C7.55012 35.703 7.46905 35.9748 7.46905 36.2705C7.46905 36.8475 7.53105 37.4674 7.65504 38.1351C7.77902 38.8027 7.90301 39.3607 8.03177 39.8137C8.16053 40.2667 8.35128 40.8819 8.6088 41.664C8.86632 42.4461 9.04276 43.0088 9.14768 43.3569L14.0023 59.6091C14.2503 58.7459 14.5937 57.5442 15.0324 55.9943C15.4759 54.4492 15.8765 53.0424 16.2437 51.7739C16.6061 50.5054 16.9638 49.3132 17.3167 48.1925C17.3358 48.1401 17.455 47.7681 17.6696 47.0671C17.8842 46.3708 18.032 45.8892 18.1083 45.6364C18.1846 45.3837 18.3277 44.8925 18.5375 44.1819C18.7473 43.4666 18.8999 42.923 19.0001 42.5415C19.0955 42.16 19.2242 41.6545 19.3864 41.025C19.5437 40.3955 19.6629 39.8709 19.7392 39.4608C19.8155 39.0507 19.8871 38.6167 19.9491 38.1685C20.0111 37.7154 20.0397 37.3244 20.0397 37.0001C20.0397 35.8794 19.6677 35.207 18.9285 34.9829L18.9572 34.7206H24.1933C24.0503 34.9781 23.85 35.1069 23.5925 35.1069C23.5734 35.1069 23.5352 35.1021 23.478 35.0926C23.4208 35.083 23.3779 35.0782 23.3492 35.0782V34.7873H23.9215L23.9501 35.0163C23.7117 35.1069 23.4828 35.2452 23.2491 35.4311C23.0202 35.6171 22.8008 35.8603 22.5958 36.156C22.3907 36.4564 22.2047 36.7426 22.0331 37.0192C21.8614 37.2958 21.6897 37.6534 21.5085 38.0874C21.3273 38.5261 21.1794 38.8885 21.0602 39.1794C20.941 39.4703 20.8122 39.8614 20.6692 40.343C20.5261 40.8247 20.4212 41.1776 20.3544 41.3969C20.2877 41.6163 20.1923 41.9549 20.0635 42.4079C19.9348 42.861 19.8585 43.128 19.8394 43.2091L14.4172 62.1413H12.0137L12.0185 62.1318Z" fill="#1E1E1E"/>
<path d="M25.6334 62.0699H21.289L21.2556 61.8554C22.486 61.3212 23.6734 58.8653 24.8132 54.4923C24.8561 54.3397 24.8847 54.2252 24.9038 54.1537C25.4188 52.2032 25.9577 50.2146 26.5204 48.1831C27.0831 46.1564 27.7984 43.648 28.6521 40.6674C29.5105 37.6822 30.0779 35.6983 30.3545 34.7112H32.882L38.5665 53.5814C39.9733 58.3169 40.9366 60.8825 41.4611 61.2831C41.8426 61.5788 42.2098 61.7695 42.5723 61.8506L42.5437 62.0986L35.7672 62.1892V61.8792C36.3108 61.8792 36.7209 61.7123 36.9927 61.3785C37.2646 61.0447 37.4029 60.6011 37.4029 60.048C37.4029 59.4519 37.3313 58.8462 37.193 58.2215C37.0547 57.6016 36.8306 56.8338 36.5206 55.9277C36.2107 55.0216 36.0247 54.4351 35.9484 54.1775L30.8934 37.2291L25.9481 54.807C25.9052 54.9739 25.8194 55.2934 25.6763 55.7751C25.538 56.2567 25.4331 56.6287 25.3663 56.8862C25.2996 57.1437 25.2185 57.4728 25.1279 57.8781C25.0373 58.2835 24.9705 58.6602 24.9276 59.0036C24.8847 59.3469 24.8656 59.6855 24.8656 60.0146C24.8656 60.9922 25.1279 61.6026 25.6525 61.8458L25.6239 62.0604L25.6334 62.0699ZM24.8799 55.1551L25.2042 54.2777C26.1389 53.4336 27.2643 53.0139 28.5758 53.0139C29.1099 53.0139 29.9063 53.1141 30.9697 53.3144C32.0332 53.5147 32.8296 53.6148 33.3637 53.6148C34.4843 53.6148 35.6289 53.0712 36.7972 51.9839L36.8878 53.1379C35.9722 54.0202 34.8611 54.4637 33.5449 54.4637C32.9917 54.4637 32.1715 54.354 31.0937 54.1346C30.016 53.9153 29.1957 53.8056 28.6282 53.8056C27.4074 53.8056 26.301 54.354 25.3139 55.4556L24.8656 55.1647L24.8799 55.1551Z" fill="#1E1E1E"/>
<path d="M45.2905 61.8552L45.4431 61.8266C46.5113 61.5882 47.0455 59.8666 47.0455 56.6524C47.0455 55.8799 47.0502 54.7258 47.0598 53.1855C47.0693 51.6452 47.0741 50.4863 47.0741 49.7042C47.0741 41.478 46.9119 36.9906 46.5829 36.2418C46.3254 35.5837 45.9439 35.1641 45.4431 34.9781L45.4717 34.7158H51.5282L51.5568 34.9781C51.1037 35.1116 50.7413 35.331 50.4647 35.641C49.9306 36.1751 49.6635 38.7836 49.6635 43.4666V57.1484C49.6635 59.8094 50.107 61.2305 50.9893 61.4165C51.1323 61.4356 51.3994 61.4499 51.7904 61.4499H52.1433C52.749 61.4499 53.2068 61.4499 53.5215 61.4403C53.8363 61.4356 54.275 61.4117 54.8377 61.364C55.4004 61.3163 55.8487 61.2496 56.1778 61.1637C56.5068 61.0779 56.8883 60.9444 57.327 60.7632C57.7658 60.5819 58.1187 60.3673 58.3905 60.1098C58.6623 59.8523 58.9198 59.5233 59.1678 59.1227C59.4158 58.7221 59.6066 58.2643 59.7401 57.754H60.6509V62.1127H45.3239L45.2905 61.8648V61.8552Z" fill="#1E1E1E"/>
<path d="M64.175 61.8552L64.3277 61.8266C65.3959 61.5882 65.93 59.8666 65.93 56.6524C65.93 55.8799 65.9347 54.7258 65.9443 53.1855C65.9538 51.6452 65.9586 50.4863 65.9586 49.7042C65.9586 41.478 65.7965 36.9906 65.4674 36.2418C65.2099 35.5837 64.8284 35.1641 64.3277 34.9781L64.3563 34.7158H70.4127L70.4413 34.9781C69.9882 35.1116 69.6258 35.331 69.3492 35.641C68.8151 36.1751 68.5481 38.7836 68.5481 43.4666V57.1484C68.5481 59.8094 68.9916 61.2305 69.8738 61.4165C70.0169 61.4356 70.2839 61.4499 70.675 61.4499H71.0279C71.6335 61.4499 72.0913 61.4499 72.406 61.4403C72.7208 61.4356 73.1595 61.4117 73.7222 61.364C74.285 61.3163 74.7332 61.2496 75.0623 61.1637C75.3913 61.0779 75.7728 60.9444 76.2116 60.7632C76.6503 60.5819 77.0032 60.3673 77.275 60.1098C77.5468 59.8523 77.8044 59.5233 78.0523 59.1227C78.3003 58.7221 78.4911 58.2643 78.6246 57.754H79.5354V62.1127H64.2084L64.175 61.8648V61.8552Z" fill="#1E1E1E"/>
<path d="M101.739 34.7112H107.533L107.562 34.9735C107.357 35.045 107.195 35.1785 107.075 35.374C106.956 35.5696 106.899 35.7794 106.899 36.0035C106.899 36.3135 107.023 36.8333 107.276 37.5725C107.528 38.3116 107.824 39.089 108.167 39.8997C108.511 40.7104 108.945 41.6832 109.469 42.8134C109.994 43.9436 110.433 44.8783 110.795 45.627C111.153 46.371 111.572 47.2294 112.045 48.1974C112.517 49.1655 112.788 49.7282 112.86 49.8856C112.86 49.8761 113.375 48.6219 114.4 46.1278C115.426 43.6337 116.217 41.5688 116.77 39.933C117.324 38.2973 117.6 37.1099 117.6 36.3612C117.6 36.0512 117.524 35.7699 117.376 35.5123C117.228 35.2548 117.014 35.0784 116.737 34.9735L116.766 34.7112H121.725L121.759 34.9735C121.143 35.169 120.671 35.3597 120.342 35.5457C120.085 35.6793 119.713 36.2181 119.217 37.1624C118.726 38.1066 118.187 39.2988 117.605 40.7294C117.023 42.1601 116.484 43.5192 115.988 44.7973C115.492 46.0753 114.992 47.3867 114.486 48.7315C113.981 50.0763 113.685 50.8727 113.594 51.1207C113.623 51.3878 113.628 52.1937 113.604 53.5385C113.58 54.8833 113.566 55.6893 113.566 55.9563C113.566 56.3569 113.571 56.7002 113.58 56.9816C113.59 57.263 113.613 57.6492 113.652 58.1357C113.685 58.6221 113.757 59.0465 113.861 59.3994C113.962 59.7523 114.09 60.1147 114.248 60.4867C114.405 60.8587 114.61 61.1591 114.877 61.3975C115.144 61.636 115.454 61.7886 115.802 61.8601L115.774 62.1081H108.888L108.859 61.8601C109.178 61.76 109.455 61.5835 109.698 61.3355C109.941 61.0876 110.127 60.7776 110.271 60.3961C110.409 60.0146 110.523 59.6474 110.609 59.2945C110.695 58.9416 110.757 58.5219 110.795 58.0403C110.828 57.5586 110.852 57.1819 110.867 56.9101C110.876 56.6383 110.881 56.2997 110.881 55.8991V51.569C110.766 51.321 110.504 50.7201 110.089 49.7568C109.674 48.7935 109.283 47.9065 108.916 47.0815C108.554 46.2613 108.101 45.2646 107.562 44.101C107.023 42.9374 106.508 41.8883 106.022 40.9583C105.535 40.0284 105.03 39.1223 104.51 38.2306C103.99 37.3436 103.494 36.6187 103.022 36.0608C102.55 35.5028 102.135 35.1499 101.772 35.0069L101.801 34.7779H102.354L102.264 35.1928L101.691 34.9782L101.739 34.716V34.7112Z" fill="#1E1E1E"/>
<path d="M82.5591 61.8266C82.9167 61.8791 83.3173 61.6549 83.7608 61.1637C84.3045 60.6392 84.5763 58.0211 84.5763 53.3095V42.0789C84.5763 38.3115 84.3045 36.1608 83.7608 35.641C83.4842 35.331 83.1218 35.1116 82.6831 34.9781L82.7117 34.7158H97.7001V39.1079H96.8513C96.5747 37.806 95.9404 36.8904 94.958 36.3658C93.7754 35.7507 91.1573 35.4407 87.1038 35.4407V56.7764C87.1038 57.115 87.1038 57.3725 87.1133 57.549C87.1181 57.7254 87.1324 58.0211 87.161 58.436C87.1848 58.8509 87.2325 59.1942 87.2993 59.4613C87.3661 59.7283 87.4519 60.0145 87.5616 60.3244C87.6713 60.6344 87.8191 60.8776 88.0098 61.0541C88.2006 61.2353 88.4247 61.345 88.6823 61.3879C88.8062 61.4069 89.1973 61.4165 89.8554 61.4165C90.3895 61.4165 90.8473 61.4117 91.2288 61.4022C91.6103 61.3926 92.0872 61.3593 92.6595 61.302C93.2365 61.2448 93.7324 61.1685 94.1473 61.0731C94.5622 60.9778 95.0105 60.8299 95.4874 60.6439C95.9643 60.4532 96.3648 60.2291 96.6796 59.9668C96.9991 59.7045 97.2805 59.3707 97.5284 58.9558C97.7764 58.5457 97.9386 58.0831 98.0196 57.568H98.9114V62.1127H82.5972L82.5686 61.8361L82.5591 61.8266ZM86.026 49.3323V48.6694L88.5201 48.6408C88.7872 48.6408 89.1162 48.6456 89.5073 48.6551C89.8983 48.6646 90.1987 48.6742 90.4181 48.6789C90.6327 48.6837 90.895 48.679 91.205 48.6646C91.5149 48.6503 91.7534 48.6217 91.9298 48.5883C92.1063 48.555 92.3066 48.4977 92.5307 48.4167C92.7548 48.3404 92.9313 48.2402 93.06 48.1162C93.1888 47.9922 93.3223 47.8349 93.4702 47.6441C93.6132 47.4534 93.7277 47.2292 93.8087 46.9669C93.8898 46.7047 93.9661 46.4042 94.0329 46.0561C94.0996 45.7127 94.1473 45.3169 94.1807 44.8782H94.9962V53.0138H94.133C94.114 52.2222 94.0138 51.5832 93.8326 51.0872C93.6514 50.596 93.37 50.2193 92.979 49.9618C92.5879 49.7042 92.154 49.5373 91.6675 49.4515C91.1859 49.3704 90.5469 49.3275 89.7552 49.3275H86.026V49.3323Z" fill="#1E1E1E"/>
</svg>
