<svg width="340" height="87" viewBox="0 0 340 87" fill="none" xmlns="http://www.w3.org/2000/svg">
<path d="M48.2398 86H46.0498V69.98H48.2398V76.75H56.2798V69.98H58.4498V86H56.2798V78.82H48.2398V86Z" fill="#FFF2E2"/>
<path d="M63.5698 86V69.98H65.7398V86H63.5698Z" fill="#FFF2E2"/>
<path d="M76.6099 86H70.8599V69.98H76.8199C79.0899 69.98 80.8799 70.7 82.1999 72.15C83.5299 73.61 84.1899 75.57 84.1899 78.03C84.1899 80.49 83.5099 82.45 82.1499 83.86C80.8099 85.29 78.9599 86.01 76.5999 86.01L76.6099 86ZM73.0299 72.04V83.94H76.6899C78.3199 83.94 79.6099 83.38 80.5499 82.27C81.4799 81.16 81.9399 79.72 81.9399 77.96C81.9399 76.2 81.4799 74.81 80.5499 73.71C79.6099 72.6 78.3199 72.04 76.6899 72.04H73.0299Z" fill="#FFF2E2"/>
<path d="M94.1299 86H88.3799V69.98H94.3399C96.6099 69.98 98.3999 70.7 99.7199 72.15C101.05 73.61 101.71 75.57 101.71 78.03C101.71 80.49 101.03 82.45 99.6699 83.86C98.3299 85.29 96.4799 86.01 94.1199 86.01L94.1299 86ZM90.5499 72.04V83.94H94.2099C95.8399 83.94 97.1299 83.38 98.0699 82.27C98.9999 81.16 99.4599 79.72 99.4599 77.96C99.4599 76.2 98.9999 74.81 98.0699 73.71C97.1299 72.6 95.8399 72.04 94.2099 72.04H90.5499Z" fill="#FFF2E2"/>
<path d="M115.88 86H105.91V69.98H115.88V72.04H108.07V76.83H115.29V78.89H108.07V83.94H115.88V86Z" fill="#FFF2E2"/>
<path d="M130.92 81.4V69.97H133.07V85.99H131.94L122.33 74.63V85.99H120.18V69.97H121.16L130.92 81.4Z" fill="#FFF2E2"/>
<path d="M143.89 82.27L148.94 69.98H151.3L144.49 86H143.25L136.33 69.98H138.8L143.87 82.27H143.89Z" fill="#FFF2E2"/>
<path d="M165.55 86H163.19L161.56 81.84H155.47L153.84 86H151.48L157.96 69.98H159.13L165.55 86ZM160.83 79.8L158.53 73.75L156.21 79.8H160.83Z" fill="#FFF2E2"/>
<path d="M179.71 86H168.93V69.98H171.1V83.9H179.71V86Z" fill="#FFF2E2"/>
<path d="M193.87 86H183.09V69.98H185.26V83.9H193.87V86Z" fill="#FFF2E2"/>
<path d="M207.23 86H197.26V69.98H207.23V72.04H199.42V76.83H206.64V78.89H199.42V83.94H207.23V86Z" fill="#FFF2E2"/>
<path d="M220.61 69.98H223.02L217.53 80.24V86.01H215.36V80.24L209.94 69.98H212.35L216.45 78.09L220.61 69.98Z" fill="#FFF2E2"/>
<path d="M236.33 86.2599C235.14 86.2599 234.06 85.9699 233.09 85.3999C232.11 84.8299 231.37 84.0199 230.87 82.9599L232.47 81.6399C233.34 83.3499 234.62 84.1999 236.31 84.1999C237.21 84.1999 237.92 83.9699 238.46 83.5099C238.99 83.0499 239.26 82.4699 239.26 81.7699C239.26 80.9199 238.7 80.1699 237.59 79.5399C237.39 79.4399 236.84 79.1799 235.94 78.7599C235.2 78.4299 234.6 78.1199 234.14 77.8499C232.54 76.8399 231.73 75.5699 231.73 74.0299C231.73 72.7999 232.17 71.7699 233.05 70.9499C233.93 70.1099 235.1 69.6899 236.56 69.6899C238.55 69.6899 240.12 70.4799 241.27 72.0499L239.82 73.4399C238.95 72.2999 237.87 71.7299 236.59 71.7299C235.85 71.7299 235.24 71.9299 234.77 72.3299C234.29 72.7299 234.05 73.2499 234.05 73.8999C234.05 74.7399 234.51 75.4299 235.42 75.9599C235.8 76.1899 236.42 76.5099 237.29 76.9099C238.2 77.3399 238.87 77.6799 239.31 77.9299C240.86 78.8699 241.63 80.1099 241.63 81.6599C241.63 83.0299 241.12 84.1399 240.11 84.9799C239.1 85.8299 237.84 86.2599 236.34 86.2599H236.33Z" fill="#FFF2E2"/>
<path d="M248.47 86V72.08H243.72V69.98H255.39V72.08H250.64V86H248.47Z" fill="#FFF2E2"/>
<path d="M269.62 86H267.26L265.63 81.84H259.54L257.91 86H255.55L262.03 69.98H263.2L269.62 86ZM264.89 79.8L262.59 73.75L260.27 79.8H264.89Z" fill="#FFF2E2"/>
<path d="M280.57 69.98H282.98L277.49 80.24V86.01H275.32V80.24L269.9 69.98H272.31L276.41 78.09L280.57 69.98Z" fill="#FFF2E2"/>
<path d="M289.94 86.2599C288.75 86.2599 287.67 85.9699 286.7 85.3999C285.72 84.8299 284.98 84.0199 284.48 82.9599L286.08 81.6399C286.95 83.3499 288.23 84.1999 289.92 84.1999C290.82 84.1999 291.53 83.9699 292.07 83.5099C292.6 83.0499 292.87 82.4699 292.87 81.7699C292.87 80.9199 292.31 80.1699 291.2 79.5399C291 79.4399 290.45 79.1799 289.55 78.7599C288.81 78.4299 288.21 78.1199 287.75 77.8499C286.15 76.8399 285.34 75.5699 285.34 74.0299C285.34 72.7999 285.78 71.7699 286.66 70.9499C287.54 70.1099 288.71 69.6899 290.17 69.6899C292.16 69.6899 293.73 70.4799 294.88 72.0499L293.43 73.4399C292.56 72.2999 291.48 71.7299 290.2 71.7299C289.46 71.7299 288.85 71.9299 288.38 72.3299C287.9 72.7299 287.66 73.2499 287.66 73.8999C287.66 74.7399 288.12 75.4299 289.03 75.9599C289.41 76.1899 290.03 76.5099 290.9 76.9099C291.81 77.3399 292.48 77.6799 292.92 77.9299C294.47 78.8699 295.24 80.1099 295.24 81.6599C295.24 83.0299 294.73 84.1399 293.72 84.9799C292.71 85.8299 291.45 86.2599 289.95 86.2599H289.94Z" fill="#FFF2E2"/>
<path d="M0 9.22003V1.53003H32.93V9.43003H31.38C30.99 5.00003 26.8 2.79003 18.81 2.79003C18.81 6.77003 18.81 12.75 18.78 20.71C18.76 28.68 18.75 34.65 18.75 38.63C18.75 44.68 19.94 48.05 22.31 48.73L22.26 49.16H10.79L10.74 48.73C11.29 48.57 11.78 48.29 12.2 47.89C12.62 47.49 12.95 46.96 13.19 46.31C13.43 45.66 13.63 45.04 13.78 44.45C13.93 43.86 14.03 43.11 14.09 42.2C14.15 41.29 14.17 40.58 14.18 40.07C14.18 39.56 14.18 38.86 14.17 37.97C14.16 37.08 14.14 36.53 14.14 36.34V2.79003C13.02 2.79003 11.98 2.83003 11.05 2.90003C10.11 2.97003 9.08 3.14003 7.94 3.41003C6.81 3.68003 5.83 4.03003 5.01 4.47003C4.19 4.91003 3.45 5.53003 2.79 6.35003C2.13 7.17003 1.67 8.12003 1.42 9.23003H0V9.22003Z" fill="#FFF2E2"/>
<path d="M39.8102 1.53003H50.6302L50.7402 1.99003C50.1002 2.19003 49.4702 2.55003 48.8602 3.09003C47.9102 4.11003 47.4402 7.91003 47.4402 14.5L47.4902 36.07C47.4902 42.73 47.9602 46.57 48.9102 47.59C49.3002 48.09 49.9802 48.47 50.9502 48.74L50.9002 49.17H39.9202L39.8102 48.79C40.2902 48.63 40.7202 48.35 41.0802 47.96C41.4502 47.57 41.7402 47.08 41.9502 46.51C42.1602 45.94 42.3402 45.39 42.4702 44.85C42.6002 44.31 42.7002 43.68 42.7502 42.96C42.8002 42.24 42.8402 41.67 42.8602 41.25C42.8802 40.83 42.8902 40.33 42.8902 39.74L42.8402 14.61C42.8402 7.73003 42.4402 3.91003 41.6302 3.14003C41.0802 2.59003 40.4302 2.20003 39.7002 1.99003L39.8102 1.53003Z" fill="#FFF2E2"/>
<path d="M56.9799 1.53003H64.1099L88.0399 41.1L88.2299 14.98C88.2299 13.69 88.1899 12.34 88.1199 10.91C88.0499 9.48003 87.8299 7.85003 87.4799 6.02003C87.1299 4.19003 86.6399 3.06003 86.0299 2.63003C85.6499 2.40003 85.1699 2.18003 84.5799 1.99003L84.6299 1.53003H93.6899L93.7399 1.99003C93.2599 2.15003 92.7999 2.37003 92.3699 2.63003C91.9099 2.99003 91.5099 3.71003 91.1799 4.79003C90.8499 5.87003 90.6199 7.13003 90.4999 8.57003C90.3699 10.01 90.2899 11.23 90.2499 12.23C90.2099 13.23 90.1799 14.19 90.1799 15.1V49.5H87.8199L63.7299 9.70003V35.45C63.7299 42.74 64.4299 46.91 65.8199 47.96C66.3699 48.34 66.9399 48.59 67.5099 48.74L67.4599 49.17H57.9699L57.9199 48.74C58.4899 48.56 59.0399 48.3 59.5499 47.96C60.8399 47.03 61.5499 43 61.6899 35.88V11.15C61.6899 10.24 61.6699 9.46003 61.6199 8.82003C61.5799 8.18003 61.4599 7.45003 61.2899 6.64003C61.1099 5.83003 60.8599 5.15003 60.5299 4.60003C60.1999 4.06003 59.7299 3.54003 59.1199 3.06003C58.5099 2.58003 57.7799 2.22003 56.9199 1.99003L56.9699 1.53003H56.9799Z" fill="#FFF2E2"/>
<path d="M98.4799 1.53001H108.55L108.6 1.99001C108.24 2.11001 107.96 2.35001 107.76 2.69001C107.55 3.03001 107.45 3.40001 107.45 3.79001C107.45 4.33001 107.67 5.24001 108.11 6.52001C108.55 7.80001 109.07 9.15001 109.66 10.57C110.25 11.99 111.01 13.67 111.92 15.63C112.83 17.6 113.6 19.23 114.22 20.52C114.84 21.82 115.57 23.31 116.39 24.99C117.21 26.68 117.68 27.66 117.81 27.92C117.81 27.9 118.7 25.72 120.49 21.38C122.28 17.04 123.65 13.45 124.62 10.61C125.58 7.77001 126.07 5.70001 126.07 4.39001C126.07 3.85001 125.94 3.36001 125.68 2.92001C125.42 2.48001 125.05 2.16001 124.57 1.98001L124.62 1.52001H133.25L133.3 1.98001C132.23 2.32001 131.41 2.65001 130.83 2.97001C130.38 3.20001 129.73 4.14001 128.87 5.78001C128.01 7.42001 127.08 9.49001 126.07 11.98C125.06 14.47 124.12 16.83 123.26 19.05C122.39 21.27 121.52 23.56 120.65 25.9C119.77 28.24 119.26 29.62 119.1 30.05C119.15 30.51 119.16 31.92 119.11 34.26C119.06 36.6 119.04 38 119.04 38.47C119.04 39.17 119.04 39.76 119.07 40.25C119.1 40.74 119.13 41.41 119.19 42.26C119.25 43.11 119.37 43.84 119.55 44.46C119.73 45.08 119.95 45.71 120.22 46.35C120.49 46.99 120.85 47.52 121.32 47.93C121.78 48.34 122.32 48.61 122.93 48.73L122.88 49.16H110.9L110.85 48.73C111.4 48.55 111.89 48.25 112.31 47.82C112.73 47.39 113.06 46.85 113.3 46.19C113.54 45.53 113.74 44.89 113.89 44.27C114.04 43.65 114.15 42.93 114.21 42.09C114.27 41.25 114.31 40.59 114.33 40.12C114.35 39.65 114.36 39.06 114.36 38.37V30.84C114.16 30.41 113.7 29.36 112.98 27.69C112.26 26.02 111.58 24.47 110.94 23.04C110.31 21.61 109.52 19.88 108.58 17.86C107.64 15.83 106.75 14.01 105.9 12.39C105.05 10.77 104.18 9.19001 103.28 7.65001C102.38 6.11001 101.52 4.85001 100.69 3.87001C99.8599 2.89001 99.1499 2.29001 98.5199 2.03001L98.5699 1.63001H99.5299L99.3699 2.35001L98.3799 1.97001L98.4599 1.51001L98.4799 1.53001Z" fill="#FFF2E2"/>
<path d="M141.16 39.68L141.08 14.6C141.08 13.46 141.06 12.22 141.01 10.9C140.97 9.58002 140.84 8.04002 140.63 6.28002C140.42 4.52002 140.15 3.47002 139.81 3.13002C139.31 2.58002 138.69 2.19002 137.96 1.98002L138.01 1.52002H148.92L148.97 1.98002C148.24 2.19002 147.62 2.58002 147.12 3.13002C146.16 4.09002 145.67 7.73002 145.67 14.04V36.06C145.67 42.74 146.15 46.58 147.12 47.58C147.58 48.1 148.28 48.48 149.21 48.73L149.16 49.16H138.12L138.07 48.73C140.12 48.05 141.15 45.03 141.15 39.67L141.16 39.68ZM142.95 31.67L143.73 30.06C145.84 28.67 148.3 27.97 151.12 27.97C152.32 27.97 154.12 28.14 156.53 28.47C158.94 28.8 160.76 28.97 161.99 28.97C164.56 28.97 167.1 28.09 169.6 26.35L169.79 28.23C167.68 29.73 165.21 30.48 162.37 30.48C161.12 30.48 159.27 30.29 156.82 29.9C154.37 29.51 152.52 29.32 151.27 29.32C148.39 29.32 145.84 30.27 143.61 32.16L142.94 31.68L142.95 31.67ZM167.82 36.81V14.23C167.82 13.93 167.82 13.44 167.81 12.76C167.8 12.08 167.79 11.52 167.77 11.09C167.75 10.66 167.73 10.12 167.72 9.48002C167.71 8.84002 167.67 8.30002 167.61 7.85002C167.56 7.39002 167.5 6.92002 167.45 6.43002C167.4 5.94002 167.33 5.51002 167.24 5.13002C167.15 4.75002 167.05 4.44002 166.95 4.19002C166.49 3.05002 165.77 2.31002 164.81 1.99002L164.86 1.53002H175.17L175.22 1.99002C173.17 2.72002 172.2 6.23002 172.33 12.52V35.13C172.33 40.95 172.64 44.72 173.27 46.44C173.72 47.64 174.42 48.42 175.39 48.8L175.34 49.18H164.7L164.65 48.8C165.1 48.64 165.5 48.38 165.86 48.02C166.22 47.66 166.51 47.27 166.73 46.85C166.95 46.43 167.14 45.9 167.29 45.26C167.44 44.62 167.56 44.05 167.64 43.55C167.72 43.05 167.78 42.42 167.81 41.66C167.85 40.9 167.86 40.31 167.86 39.89C167.86 39.47 167.86 38.9 167.85 38.19C167.85 37.48 167.84 37.02 167.84 36.82L167.82 36.81Z" fill="#FFF2E2"/>
<path d="M196.13 1.77C199.34 0.59 202.56 0 205.77 0C208.98 0 212.25 0.59 215.42 1.77C220.39 3.59 224.24 6.52 226.97 10.54C229.7 14.57 231.07 19.23 231.07 24.51C231.07 29.46 229.89 33.93 227.52 37.93C225.15 41.93 221.76 45.01 217.35 47.17C213.72 48.94 209.97 49.82 206.1 49.82C202.23 49.82 198.47 48.94 194.79 47.17C190.32 45.03 186.89 41.95 184.47 37.93C182.06 33.91 180.85 29.4 180.85 24.4C180.85 19.15 182.17 14.52 184.8 10.52C187.43 6.52 191.21 3.6 196.12 1.76L196.13 1.77ZM207.36 48.68C210.2 48.68 212.82 48.1 215.21 46.95C217.6 45.8 219.58 44.25 221.14 42.31C222.7 40.37 223.92 38.15 224.78 35.65C225.65 33.15 226.08 30.53 226.08 27.8C226.08 25.82 225.86 23.79 225.42 21.72C224.98 19.65 224.36 17.62 223.54 15.64C222.72 13.66 221.69 11.8 220.43 10.05C219.17 8.31 217.77 6.78 216.24 5.47C214.71 4.16 212.93 3.12 210.92 2.35C208.91 1.58 206.81 1.2 204.61 1.2C202.27 1.2 200.09 1.58 198.06 2.32C196.03 3.07 194.29 4.11 192.82 5.43C191.35 6.75 190.1 8.3 189.04 10.06C187.99 11.83 187.2 13.75 186.68 15.82C186.16 17.89 185.9 20.04 185.9 22.25C185.9 24.22 186.12 26.22 186.57 28.28C187.02 30.33 187.65 32.34 188.47 34.31C189.29 36.28 190.34 38.12 191.6 39.86C192.86 41.6 194.27 43.11 195.81 44.43C197.35 45.74 199.11 46.78 201.1 47.54C203.09 48.3 205.17 48.68 207.33 48.68H207.36Z" fill="#FFF2E2"/>
<path d="M235.54 1.53002H246.39L246.44 1.99002C245.53 2.37002 244.8 3.11002 244.24 4.24002C243.72 5.22002 243.46 8.44002 243.46 13.89V31.39C243.46 32.55 243.5 33.67 243.59 34.75C243.68 35.83 243.84 36.95 244.09 38.11C244.34 39.27 244.64 40.34 245.01 41.31C245.38 42.28 245.88 43.22 246.48 44.11C247.09 45 247.78 45.76 248.56 46.37C249.34 46.99 250.27 47.48 251.37 47.84C252.47 48.2 253.68 48.39 255 48.39C256.88 48.39 258.54 48.02 260.01 47.28C261.48 46.54 262.65 45.58 263.55 44.41C264.44 43.24 265.18 41.85 265.76 40.23C266.34 38.61 266.74 37.02 266.95 35.45C267.16 33.88 267.27 32.24 267.27 30.52V13.45C267.27 6.52002 266.05 2.70002 263.6 1.98002L263.65 1.52002H273.08L273.13 1.98002C272.43 2.16002 271.91 2.43002 271.55 2.78002C270.94 3.35002 270.46 4.53002 270.1 6.32002C269.74 8.11002 269.53 9.70002 269.46 11.09C269.39 12.48 269.35 13.85 269.35 15.19V30.36C269.35 32.41 269.2 34.35 268.89 36.16C268.59 37.97 268.07 39.73 267.35 41.42C266.63 43.12 265.71 44.58 264.6 45.8C263.49 47.02 262.07 48 260.33 48.73C258.59 49.46 256.62 49.83 254.42 49.83C244.08 49.83 238.91 43.57 238.91 31.05V14.6C238.91 7.96002 238.45 4.15002 237.52 3.19002C237.04 2.64002 236.34 2.23002 235.43 1.98002L235.51 1.52002L235.54 1.53002Z" fill="#FFF2E2"/>
<path d="M279.53 27.9199C279.23 28.8999 279.07 30.1499 279.07 31.6699C279.07 33.0099 279.22 34.4299 279.53 35.9199C279.84 37.4099 280.31 38.9099 280.95 40.4099C281.59 41.9099 282.36 43.2599 283.25 44.4699C284.14 45.6799 285.24 46.6599 286.53 47.4199C287.82 48.1799 289.21 48.5599 290.7 48.5599C292.72 48.5599 294.59 47.9699 296.31 46.7799C298.03 45.5899 299.38 44.0699 300.34 42.2099C301.3 40.3499 301.79 38.4299 301.79 36.4499C301.79 34.6799 301.53 33.1299 301 31.7899C300.47 30.4499 299.77 29.3699 298.88 28.5399C298 27.7099 296.98 26.9799 295.84 26.3599C294.7 25.7399 293.49 25.1899 292.22 24.7299C290.95 24.2699 289.68 23.8099 288.42 23.3499C287.15 22.8899 285.95 22.3499 284.8 21.7199C283.66 21.0899 282.64 20.3499 281.76 19.5099C280.88 18.6699 280.17 17.5799 279.64 16.2299C279.11 14.8799 278.85 13.3199 278.85 11.5599C278.85 9.79992 279.19 8.23992 279.87 6.85992C280.55 5.47992 281.47 4.35992 282.64 3.50992C283.81 2.65992 285.14 2.01992 286.62 1.57992C288.1 1.13992 289.68 0.919922 291.36 0.919922C295.54 0.919922 299.38 1.87992 302.88 3.80992C302.88 6.71992 302.59 10.4199 302 14.8999H300.42C300.49 13.4899 300.46 12.1899 300.34 10.9899C300.22 9.78992 299.94 8.63992 299.52 7.51992C299.1 6.39992 298.54 5.45992 297.83 4.67992C297.12 3.89992 296.2 3.27992 295.04 2.81992C293.89 2.35992 292.55 2.11992 291.04 2.11992C289.61 2.11992 288.3 2.55992 287.1 3.42992C285.9 4.30992 284.98 5.39992 284.33 6.71992C283.68 8.03992 283.35 9.40992 283.35 10.8199C283.35 12.0199 283.6 13.0699 284.11 13.9799C284.62 14.8899 285.3 15.6399 286.16 16.2299C287.02 16.8199 288 17.3499 289.12 17.8399C290.24 18.3299 291.41 18.7999 292.63 19.2599C293.85 19.7199 295.08 20.2199 296.31 20.7299C297.54 21.2499 298.72 21.8999 299.83 22.6999C300.94 23.4999 301.93 24.3999 302.79 25.4199C303.65 26.4399 304.33 27.7399 304.84 29.3199C305.35 30.8999 305.6 32.6899 305.6 34.6899C305.6 36.6899 305.22 38.6199 304.46 40.4799C303.7 42.3399 302.67 43.9499 301.38 45.3299C300.08 46.7099 298.52 47.7999 296.69 48.6299C294.86 49.4599 292.94 49.8599 290.92 49.8599C287.97 49.8599 285.16 49.0999 282.49 47.5799C279.82 46.0599 277.96 43.9999 276.9 41.3899C276.9 35.7599 277.12 31.3399 277.57 28.1299L279.5 27.9399L279.53 27.9199Z" fill="#FFF2E2"/>
<path d="M311.06 48.68C311.68 48.77 312.38 48.39 313.15 47.53C314.1 46.62 314.57 42.07 314.57 33.87V14.33C314.57 7.78002 314.1 4.04002 313.15 3.13002C312.67 2.59002 312.04 2.21002 311.27 1.98002L311.32 1.52002H337.39V9.16002H335.92C335.44 6.89002 334.34 5.30002 332.62 4.39002C330.57 3.32002 326.01 2.78002 318.96 2.78002V39.89C318.96 40.48 318.96 40.93 318.97 41.23C318.98 41.53 319.01 42.05 319.05 42.77C319.09 43.49 319.17 44.09 319.29 44.55C319.41 45.01 319.56 45.51 319.75 46.05C319.94 46.59 320.2 47.01 320.53 47.32C320.86 47.63 321.25 47.82 321.7 47.9C321.91 47.94 322.59 47.95 323.74 47.95C324.67 47.95 325.46 47.95 326.12 47.92C326.78 47.9 327.61 47.84 328.61 47.75C329.61 47.65 330.47 47.52 331.19 47.35C331.91 47.18 332.69 46.93 333.52 46.6C334.35 46.27 335.04 45.88 335.6 45.42C336.15 44.96 336.64 44.38 337.07 43.67C337.5 42.96 337.78 42.15 337.93 41.26H339.48V49.16H311.11L311.06 48.68ZM317.09 26.95V25.8L321.43 25.75C321.89 25.75 322.47 25.75 323.14 25.78C323.82 25.8 324.35 25.81 324.72 25.82C325.09 25.83 325.55 25.82 326.09 25.79C326.63 25.76 327.05 25.72 327.35 25.66C327.65 25.6 328 25.5 328.39 25.37C328.78 25.24 329.09 25.06 329.31 24.85C329.53 24.64 329.77 24.36 330.02 24.03C330.27 23.7 330.47 23.31 330.61 22.85C330.75 22.39 330.88 21.87 331 21.27C331.12 20.67 331.2 19.99 331.25 19.22H332.67V33.37H331.17C331.13 31.99 330.96 30.88 330.65 30.02C330.34 29.16 329.84 28.51 329.16 28.06C328.48 27.61 327.72 27.32 326.88 27.18C326.04 27.04 324.93 26.97 323.56 26.97H317.08L317.09 26.95Z" fill="#FFF2E2"/>
</svg>
